<svg id="Layer_1" data-name="Layer 1" xmlns="http://www.w3.org/2000/svg" viewBox="0 0 800 250"><defs><style>.cls-1{fill:#354a5f;}</style></defs><path class="cls-1" d="M243.18,117.78s10.93-3.53,16.21-4.94,14.11-2.12,13.05,7-1.41,18.68-6.35,22.91-12.88,3.53-17.9,4.23-5.37,2.05-5,6-.36,17.66-7.05,22.6-7.41,4.31-13,2.33-5.29-8.68-2.47-19.25,3.88-20.1,5.29-25.38S229.78,118.12,243.18,117.78Z"/><path class="cls-1" d="M187.48,159.37S197.7,153,203.34,153s6.35,1.09,6,9.2-3.87,11.23,3.18,12,5.28,3.17,3.87,11.28-1.88,16.44-13.81,17.39-31.31,3.76-30.25-4-2.47-5.64-5.29-3.88-17.28,9.17-15.16-2.12,4.58-25.29,8.81-27.63,6.7-3.74,12-2.33S178.42,164,187.48,159.37Z"/><path class="cls-1" d="M101.46,117.78s-20.8,7.4-32.79,13-25.74,11.34-30,14.14-.35,3.52-8.1,3.17S14.38,152.6,10.85,153s-15.16.74-9.16-11.24,2.11-8.11,3.52-12.34,7.41-6.41,9.87-7.08,1.77.73,2.82-6.32,1.1-27.5,9.17-27.14,10.58-.71,11.28,6-3.17,16.92-3.17,16.92-1.06,2.82,3.52,1.76,68.4-27.49,74.39-30.31,9.17-7.06-13,2.46-45.88,19.42-49.75,20.79-12,3.53-8.11-8.11,4.23-14.8,6.34-16.92,15.52-8.11,22.21-10.57,30.68-15.16,61.35-23.62c0,0,11.63-7.06-4.59-1.41S67.61,68.77,40.11,82.17c0,0-10.22,7-9.16,0s1.76-7.76,7.75-11.28S88.06,48,106.7,40.21s22.57-9.51,25-11.28.71-3.52-3.17-2.11S106,35.63,102.87,36.69s-7.76,2.12-7.41-5.29,13.05-9.52,20.45-11.63S147.29,9.19,159.62,5.31s18.34-7,18-4.23S174.45,12,179.39,11,196.31,6.37,202,4.61s16.92-5.29,16.22.7-5.64,16.93-9.52,22.57-1.77,6-1.41,7.05-.71,7.4-5.29,15.86S192.78,66,198.42,66s33.14-3.52,39.14-3.52,13-1.06,9.87,6.69-7.43,19-17.3,26.8c0,0-4.58,1.76,1.06,5.28s7.05,3.88,4.94,8.47-14.11,24.67-21.51,30-31.37,17.28-37,19.39c0,0-6.34,4.23-5.28-2.47a83,83,0,0,1,5.28-18.33c1.77-3.88,1.41-3.52-3.52-2.82s-7-6-2.47-17.62c0,0,5.64-10.58,1.41-9.52s-8.11-.71-8.46,4.23-.27,2.08,2.82,5.29-3.17,15.51-4.58,18.68-4.94,6.35-8.46,8.11-5.64,4.23-1.41,6.34,11.28,2.82,5.64,10.93-7.41,4.94-5.64,9.87-6,.35-6,3.17-4.93,54.65-13,67.69-10.93,6.7-7.76-2.11,3.47-36.38,4.53-43.38.7-13.74,2.46-16.92,1.77-5.92-6-2.25-13.75,9.66-20.8,6.48-3.17-9.87-3.17-9.87,0-3.52-4.94-.35-7.75,4.94-8.11,7-1.41,3.53-8.1,5.64-13.75,2.47-8.82,5.64,3.18,2.82-14.8,8.82-24.33,6.92-23.27,1.52,3.17-14.57-3.17-10-5.65-3.87-3.88-9.16.7-10.23,1.76-16.22-.35-7.12,18.68-14.49,21.86-10.18,27.15-10.54,6.7-.35,9.17-5.29,2.82-8.1,8.46-10.57,9.87-4.59,13.39-6.35S121.2,112.5,101.46,117.78Zm5.64,24.67c-3.53.71-3.88,4.58-5.29,14.46s2.82,10.22,3.88,4.93,3.87-4.58,8.81-7.05,4.58-7.76,5.64-15.16-7,0-7,0A14.47,14.47,0,0,1,107.1,142.45Z"/><path class="cls-1" d="M318,152.12c19.53,0,19.86-39.39,28.07-110.78.16-2-.17-4.6,4.1-4.6,3.28,0,8.53,2.3,10.17,4.11-2.62,27.73-7.71,61.05-9.19,85.5-1,15.43,1.81,19,6.4,19,7.39,0,9-8.7,10.34-13a4.13,4.13,0,0,1,3.62,4.43c0,7.05-4.76,19.69-16.25,19.69-6.08,0-8.7-5.91-10.84-11.65-1.8,7.55-9.35,18.05-23.14,18.05-15.1,0-25.76-10.83-25.76-39.55,0-26.1,8.7-71.89,12.63-86.66,1-3.44,11.82-.33,14.12,2.14-5.75,20.35-14.61,67.61-14.61,92.89C307.66,147.53,311.93,152.12,318,152.12Z"/><path class="cls-1" d="M382.82,40.36c.66-1.8,1.15-4.26,4.6-4.59a12.39,12.39,0,0,1,9,3.45c-3.78,15.26-6.57,29.37-9,43.81,10.5-11.48,42-40.2,53-40.2,2.79,0,5.09,2.13,4.27,5.25-10.51,10.34-43.82,35-53,47.59,11.65,15.43,25.76,28.89,41.85,51,1.8,2.63.82,4.11,0,5.42-2,3-5.42,3.77-6.73,4.76-1,.65-3.12,1.15-5.25-1.64-13.62-17.56-29.71-35-37.91-45.14-1.15,10.67-2.14,22-3,34.14,0,0,4.6-.82,3.12,2.3-1,1.8-3.77,9.68-3.77,9.68-1.65,4.43-13.3-1.8-14.45-3.44C368.55,119.63,373.63,66.79,382.82,40.36Z"/><path class="cls-1" d="M469.64,49.72c9.19-3.78,22.16-6.24,33.81-7.88.65-2.79,1.47-5.25,2.13-7.55,4.43.66,8.37,2.13,10.67,4.6l-.33,1.31,13.46-1.15c6.07-.49,11.16,0,12.47,1.64.66.82,5.75,6.89,5.75,8.21,0,1.15-1.32,2.62-3.45,2.62-7.55.17-18.38.82-30.69,2.14-5.25,29.05-9.19,56.78-12.64,89.11,1.31-.32,5.09-2.29,5.58-.65,1,3.61-7.22,17.39-7.22,17.39-1.48,4.6-12.8-1.64-13.95-3.28,3.12-28.06,9-71.23,15.1-100.77-7.55,1.15-15.59,2.79-23.63,4.76C472.43,61.21,466.85,50.87,469.64,49.72Z"/><path class="cls-1" d="M540.54,73.52a2.71,2.71,0,0,1,3-2.14c-.33,0,13.46.49,12,6.07-4.92,18.06-12.47,49.9-12.31,62.7,0,6.07,2.3,9,4.93,9,10.17,0,13.13-17.89,13.62-24.46,0,0,6.07-1.64,6.07,4.92,0,10.34-5.91,29.22-24.13,29.22-9.35,0-14.11-6.73-14.11-19.7C529.54,121.93,537.25,85.17,540.54,73.52Zm2.79-25c0-4.6,2.13-18.38,10.34-18.38,4.1,0,6.56,1,5.41,6.23,2.46,1.32,4.93,3.12,4.93,7.55,0,5.26-3.45,14.94-13.79,14.94-2.63,0-6.89-2.91-6.89-10.29Z"/><path class="cls-1" d="M591.41,100.6c-5.09,14.44-13,38.89-12.8,54.32a7.93,7.93,0,0,1-5.58,2.46c-7.39,0-11-7.88-11-21.33,0-28.4,7.72-68,11.49-68,5.09,0,10.34,3.28,9.85,5.74-3.28,16.28-8.37,37.28-8.37,47.93h.66c6.23-18.22,12-35.13,17.06-47.27.66-1.48,2.14-1.48,3.61-1.48,4.44,0,11,2.14,10.51,7.39-1,11.65-3.61,29.87-3.94,42.83h.66C609.79,105,615.21,84,624.4,66.29c.66-1.47,2.13-1.47,3.61-1.47,4.43,0,12,3,11.49,8.2-1.31,16.74-10,41.53-10,59.91,0,8.37,2.13,12.47,6.73,12.47,5.41,0,8.69-8.7,10-13a4.12,4.12,0,0,1,3.61,4.43c0,7-7.06,19.69-18.55,19.69-11.16,0-14.28-11.82-14.28-25.11,0-7.06,3.29-24.13,4.93-32.5h-2c-6.73,14.61-14.44,45.3-14.28,60.73a7.93,7.93,0,0,1-5.58,2.46c-7.39,0-8.7-7.06-8.86-19.53-.17-13.62.49-29,1.64-42Z"/><path class="cls-1" d="M663,30.84c4.1,0,11,3.78,11,5.58-1.8,7.23-9.52,36.11-11.16,46.29C667.76,72.2,674,67.44,678.6,67.44c10.5,0,19.53,15.27,19.53,27.08,0,13.13-6.73,63-27.25,63-16.57,0-25.44-12.3-25.44-34.13C645.4,97.48,660,30.84,663,30.84Zm-3.78,83.21a113.1,113.1,0,0,0-1.64,19c0,6.4,2.3,11.82,7.22,11.82,18.55,0,21.34-55.31,21.34-57.28,0-4.92.16-10-4.27-10-10,0-18,27.24-20.19,36.6,0,.16-.16.16-.33.16Z"/><path class="cls-1" d="M727.79,63.34c6.24,0,13.46,4.92,13.46,20,0,21-5.75,40.05-18.71,40.05-7.06,0-9.52-6.89-9.52-6.89s-3,8.69-3,22c0,7.71,3,13.46,11.33,13.46,12.64,0,22.81-20.52,22.81-31.35,0,0,0-1.81,2.3-1.81,2.63,0,4.76,3.28,4.76,7.88,0,14.28-8.86,38.4-27.08,38.4-12.64,0-24.46-11.65-24.46-32.16C699.72,105.52,713.35,63.34,727.79,63.34Zm-8.7,50.22c5.75,0,10.67-18.54,10.67-33.64,0-6.9-1.15-7.72-2-7.72-.66,0-1.48.66-2.46,3-3.94,8.86-8.54,22.32-10.34,34.3,0,0,.85,4.06,4.13,4.06Z"/><path class="cls-1" d="M764.71,103.88c4.27-10.51,7.55-25.28,9.85-33.48,1.15-3.94,5.42-5.25,10.18-4.11,3.44.82,5.25,2.47,5.25,5.75,0,6.07-7.06,15.75-7.06,27.73a5.3,5.3,0,0,0,4.92,4.93c6.57,0,8.54-9.68,9.52-9.68,1.15,0,2.63,1,2.63,2.13-.33,5.74-5.42,15.1-14,15.1-9.68,0-12.14-6.4-12.8-13.62-3,8.86-10.83,27.73-11.16,54.65-3.78,2.3-14.44-2.3-14.44-5.91,0-4.76,1.8-10.83,3.11-46.45.5-16.24,1-32,6.57-32,4.27,0,9.35,3.78,9.35,3.78-.49,8.86-2.62,21-3.12,30.69Z"/><path class="cls-1" d="M304.53,195.64s10.07,4.49,10.07,14c0,6.29-3.34,8.64-7.12,8.64-4.59,0-9-5.14-9-9.46,0-2,1.31-6.35,3.28-6.35a4,4,0,0,1,2.46,2c0,1.75-2.35,6.08-2.35,6.57a3.68,3.68,0,0,0,3.88,3.17c3.45,0,5.09-2.51,5.09-6.23,0-5.59-5.14-9.63-8.75-10.07a5.45,5.45,0,0,1-1.42-4.16c.22-2.3,13.51-7.06,14.33-7.06.55,0,1.81,1.43,1.81,2.41,0,2.08-3.73,5.09-5.09,5.09-.55,0-.71-1.48-1.26-1.48-1.42.06-5.58,2.24-6,2.68Z"/><path class="cls-1" d="M329.86,208c-.71,2.52-2.41,8.32-4.92,8.32s-6.24-3.72-6.24-7.44c0-6.41,3.39-20.14,5.41-20.14a4.11,4.11,0,0,1,2.68,1.48,78.5,78.5,0,0,0-3.5,21.23l.77.27c3.94-6.4,7.06-17.5,7.71-23.3.06-.5.44-.66.93-.66,1.59,0,3.61,1.15,3.61,2.08,0,2-2.62,13.89-2.62,18,0,1.26.44,4.21,2.3,4.21,2.35,0,3.33-5,3.33-5,.5,0,1.48.05,1.48,1.36,0,2.08-2.85,7.12-6,7.12-4.16,0-4.82-4.44-4.65-7.55Z"/><path class="cls-1" d="M345.78,195.64s10.06,4.49,10.06,14c0,6.29-3.33,8.64-7.11,8.64-4.59,0-9-5.14-9-9.46,0-2,1.31-6.35,3.28-6.35a4.09,4.09,0,0,1,2.46,2c0,1.75-2.35,6.08-2.35,6.57a3.68,3.68,0,0,0,3.88,3.17c3.45,0,5.09-2.51,5.09-6.23,0-5.59-5.14-9.63-8.75-10.07a5.44,5.44,0,0,1-1.43-4.16c.22-2.3,13.52-7.06,14.34-7.06.54,0,1.8,1.43,1.8,2.41,0,2.08-3.72,5.09-5.09,5.09-.54,0-.71-1.48-1.25-1.48-1.43.06-5.58,2.24-6,2.68Z"/><path class="cls-1" d="M359.34,189.62c.61-.49,3.12-1.14,5.86-1.69,1-3.72,2-6.51,2.57-7,.93-.66,3.77,1.42,3.61,2l-1.1,4.05c1-.16,1.92-.27,2.58-.33,1.2-.11,2.24-.32,2.57.39s.82.16,1.47.82a5.76,5.76,0,0,1,1.15,1.8c0,.39-.11.82-.82.82a68.75,68.75,0,0,0-8.09.88c-1.81,7-3.51,14.77-3.51,19.75,0,1.42.61,2.3,1.76,2.3,3.22,0,7.65-3.89,7.87-6.79,0,0,2-.49,2,2.79,0,3.72-5.19,8-8.7,8-3.72,0-6.83-3.88-6.83-9.52,0-3.28,1.09-9.85,2.46-15.7l-2.46.55C360.27,193.12,358.58,190.28,359.34,189.62Z"/><path class="cls-1" d="M392.22,213a6.8,6.8,0,0,1-5.8,4c-4.05,0-7.11-4.16-7.11-10.83,0-9.91,4.54-19.75,11.11-19.75,3.72,0,5.36,2.4,5.36,4a3.15,3.15,0,0,1-.06.61c.5.16,2.63.21,2.3,1.47-1.7,6.13-3.06,11.82-3.06,16.14,0,2.52.43,4.21,2.29,4.21,2.85,0,3.61-3.55,4-6.83a1.39,1.39,0,0,1,1.57,1.18,1.41,1.41,0,0,1,0,.29c0,2.9-2.24,9.08-6.4,9.08a4.12,4.12,0,0,1-3.94-3.61Zm-6.35.28c3.23,0,6.19-13.08,6.19-15a5.23,5.23,0,0,1-2.52-1.2,9.39,9.39,0,0,0,1.86-5.47c0-.49,0-1.81-1-1.81-4,0-6.45,13.08-6.45,18.82C383.91,211.94,384.45,213.26,385.87,213.26Z"/><path class="cls-1" d="M407.59,189.3a.91.91,0,0,1,1-.72c-.11,0,4.48.17,4,2-1.64,6-4.16,16.63-4.1,20.9,0,2,.76,3,1.64,3,3.39,0,4.37-6,4.54-8.16a1.52,1.52,0,0,1,1.93,1,1.43,1.43,0,0,1,.07.68c0,3.44-2,9.73-8,9.73-3.12,0-4.7-2.24-4.7-6.56C403.93,205.43,406.5,193.18,407.59,189.3Zm.93-8.32c0-1.53.71-6.13,3.45-6.13,1.37,0,2.19.33,1.8,2.08a2.62,2.62,0,0,1,1.64,2.52c0,1.75-1.14,5-4.59,5-.88,0-2.3-1-2.3-3.47Z"/><path class="cls-1" d="M427.56,197.78c-2.24,4.86-5.14,14.16-5.09,19.31a2.64,2.64,0,0,1-1.86.82c-2.46,0-3.12-3-3.12-7.11,0-11.66,1.43-22.65,4.76-22.65.66,0,1.92.11,1.75,1.47-.65,5.26-2.19,10.34-2.19,15.76H422c2.08-6.07,4.16-12.58,7.22-18.49.22-.49.72-.49,1.21-.49,1.48,0,4,1,3.83,2.73-.44,5.58-3.34,12.69-3.34,20,0,2.79.71,4.16,2.24,4.16,1.81,0,2.9-2.9,3.34-4.32a1.37,1.37,0,0,1,1.2,1.47c0,2.36-2.35,6.57-6.18,6.57s-4.76-3.94-4.76-8.37a80.46,80.46,0,0,1,1.43-10.83Z"/><path class="cls-1" d="M451.9,213a6.8,6.8,0,0,1-5.8,4c-4.05,0-7.11-4.16-7.11-10.83,0-9.91,4.54-19.75,11.11-19.75,3.72,0,5.36,2.4,5.36,4a3.15,3.15,0,0,1-.06.61c.5.16,2.63.21,2.3,1.47-1.69,6.13-3.06,11.82-3.06,16.14,0,2.52.44,4.21,2.29,4.21,2.85,0,3.62-3.55,4-6.83a1.39,1.39,0,0,1,1.58,1.17,1.51,1.51,0,0,1,0,.3c0,2.9-2.25,9.08-6.41,9.08a4.1,4.1,0,0,1-3.93-3.61Zm-6.34.28c3.22,0,6.18-13.08,6.18-15a5.23,5.23,0,0,1-2.52-1.2,9.39,9.39,0,0,0,1.86-5.47c0-.49,0-1.81-1-1.81-4,0-6.45,13.08-6.45,18.82C443.59,211.94,444.13,213.26,445.56,213.26Z"/><path class="cls-1" d="M469.08,175.12c1.37,0,3.66,1.26,3.66,1.86-.6,2.41-3.17,12-3.72,15.43,1.65-3.5,3.72-5.09,5.26-5.09,3.5,0,6.51,5.09,6.51,9,0,4.37-2.25,21-9.08,21-5.53,0-8.48-4.11-8.48-11.38C463.23,197.28,468.1,175.12,469.08,175.12Zm-1.26,27.74a38.49,38.49,0,0,0-.55,6.34c0,2.14.77,3.94,2.41,3.94,6.18,0,7.11-18.43,7.11-19.09,0-1.64.06-3.34-1.42-3.34-3.34,0-6,9.08-6.73,12.2,0,.06-.05.06-.11.06Z"/><path class="cls-1" d="M485.38,210.58a333.3,333.3,0,0,1,4.92-35.46.75.75,0,0,1,.83-.49c1.31,0,3.66,1.48,3.5,2.46A329.23,329.23,0,0,0,490,213c-.11,1.48-.22,3-.28,4.44-.6.92-4.1-1-4.37-1.92S485.27,212.33,485.38,210.58Z"/><path class="cls-1" d="M505.18,185.9c2.08,0,4.49,1.64,4.49,6.68,0,7-1.91,13.35-6.24,13.35a3.55,3.55,0,0,1-3.17-2.3,25.23,25.23,0,0,0-1,7.33c0,2.57,1,4.49,3.77,4.49,4.21,0,7.61-6.84,7.61-10.45,0,0,0-.61.76-.61S513,205.49,513,207c0,4.76-3,12.8-9,12.8-4.21,0-8.15-3.88-8.15-10.72C495.83,200,500.37,185.9,505.18,185.9Zm-2.89,16.74c1.91,0,3.55-6.18,3.55-11.21,0-2.3-.38-2.57-.66-2.57s-.49.22-.82,1a48.68,48.68,0,0,0-3.44,11.44s.27,1.34,1.37,1.34Z"/><path class="cls-1" d="M537.13,185.9c2.08,0,4.49,1.64,4.49,6.68,0,7-1.92,13.35-6.24,13.35a3.55,3.55,0,0,1-3.17-2.3,24.9,24.9,0,0,0-1,7.33c0,2.57,1,4.49,3.78,4.49,4.21,0,7.6-6.84,7.6-10.45,0,0,0-.61.77-.61s1.58,1.1,1.58,2.63c0,4.76-3,12.8-9,12.8-4.21,0-8.15-3.88-8.15-10.72C527.78,200,532.32,185.9,537.13,185.9Zm-2.9,16.74c1.92,0,3.56-6.18,3.56-11.21,0-2.3-.39-2.57-.66-2.57s-.49.22-.82,1a49.18,49.18,0,0,0-3.45,11.44S533.14,202.64,534.23,202.64Z"/><path class="cls-1" d="M552.17,208.22c.55-3.22,5-24.56,7.88-24.56.71,0,2.24.55,2.24,1.26-.46,1.32-1,2.61-1.58,3.88-2.9,8.7-6.24,20.35-6.24,29.49a1.87,1.87,0,0,1-1.53.77,4.35,4.35,0,0,1-4.69-4,3.49,3.49,0,0,1,0-.56c-.06-1.92-1.1-6.79-1.1-13.41,0-5.74.33-13.78.33-13.78a1.18,1.18,0,0,1,1.26-1c.82,0,3.5.77,3.5,1.75a102.92,102.92,0,0,0-.88,13.13c0,3.39.39,6.07.44,7Z"/><path class="cls-1" d="M569.24,186.56a2.87,2.87,0,0,1,1.42,1.37,3.19,3.19,0,0,1,1.92-.66c5.74,0,6.67,5.31,6.51,11-.22,6-2.3,19-9.36,19-5.74,0-7.82-7.55-7.66-13.57C562.35,196.63,565.79,187.6,569.24,186.56Zm-.49,26.92c5.09,0,6.78-14.61,6.89-17.84.06-1.58.39-5.47-1.8-5.47-3.18,0-5.75,9.57-6.29,12.69-.06.22-1.26-.22-1.59-.49a21.18,21.18,0,0,0-.38,3.56C565.41,210.12,566.51,213.48,568.75,213.48Z"/><path class="cls-1" d="M583.46,210.58a333.32,333.32,0,0,1,4.93-35.46.74.74,0,0,1,.82-.49c1.31,0,3.66,1.48,3.5,2.46A329.23,329.23,0,0,0,588.06,213c-.11,1.48-.22,3-.27,4.44-.61.92-4.11-1-4.38-1.92S583.35,212.33,583.46,210.58Z"/><path class="cls-1" d="M605.35,208c-.72,2.52-2.41,8.32-4.93,8.32s-6.23-3.72-6.23-7.44c0-6.41,3.39-20.14,5.41-20.14a4.2,4.2,0,0,1,2.68,1.48,78.5,78.5,0,0,0-3.5,21.23l.77.27c3.94-6.4,7.05-17.5,7.71-23.3.06-.5.44-.66.93-.66,1.59,0,3.61,1.15,3.61,2.08,0,2-2.62,13.89-2.62,18,0,1.26.43,4.21,2.29,4.21,2.36,0,3.34-5,3.34-5,.49,0,1.48.05,1.48,1.36,0,2.08-2.85,7.12-6,7.12-4.15,0-4.81-4.44-4.65-7.55Z"/><path class="cls-1" d="M616.51,189.62c.6-.49,3.11-1.14,5.85-1.69,1-3.72,2-6.51,2.57-7,.93-.66,3.78,1.42,3.61,2L627.45,187c1-.16,1.91-.27,2.57-.33,1.2-.11,2.24-.32,2.57.39s.82.16,1.48.82a6,6,0,0,1,1.15,1.8c0,.39-.11.82-.82.82a68.69,68.69,0,0,0-8.1.88c-1.81,7-3.5,14.77-3.5,19.75,0,1.42.6,2.3,1.75,2.3,3.23,0,7.66-3.89,7.88-6.79,0,0,2-.49,2,2.79,0,3.72-5.2,8-8.7,8-3.72,0-6.84-3.88-6.84-9.52,0-3.28,1.09-9.85,2.46-15.7l-2.46.55C617.44,193.12,615.74,190.28,616.51,189.62Z"/><path class="cls-1" d="M640.52,189.3a.91.91,0,0,1,1-.72c-.11,0,4.48.17,4,2-1.64,6-4.16,16.63-4.1,20.9,0,2,.76,3,1.64,3,3.39,0,4.37-6,4.54-8.16a1.52,1.52,0,0,1,1.93,1,1.43,1.43,0,0,1,.07.68c0,3.44-2,9.73-8,9.73-3.12,0-4.7-2.24-4.7-6.56C636.86,205.43,639.43,193.18,640.52,189.3Zm.93-8.32c0-1.53.71-6.13,3.45-6.13,1.37,0,2.19.33,1.8,2.08a2.62,2.62,0,0,1,1.64,2.52c0,1.75-1.14,5-4.59,5-.88,0-2.3-1-2.3-3.47Z"/><path class="cls-1" d="M657.92,186.56a2.87,2.87,0,0,1,1.42,1.37,3.22,3.22,0,0,1,1.91-.66c5.75,0,6.68,5.31,6.51,11-.21,6-2.29,19-9.35,19-5.74,0-7.82-7.55-7.66-13.57C651,196.63,654.47,187.6,657.92,186.56Zm-.5,26.92c5.09,0,6.79-14.61,6.9-17.84,0-1.58.38-5.47-1.81-5.47-3.17,0-5.74,9.57-6.29,12.69-.05.22-1.26-.22-1.58-.49a21.19,21.19,0,0,0-.39,3.56C654.09,210.12,655.18,213.48,657.42,213.48Z"/><path class="cls-1" d="M681.44,197.78c-2.24,4.86-5.14,14.16-5.09,19.31a2.64,2.64,0,0,1-1.86.82c-2.46,0-3.12-3-3.12-7.11,0-11.66,1.43-22.65,4.76-22.65.66,0,1.92.11,1.75,1.47-.65,5.26-2.18,10.34-2.18,15.76h.21c2.08-6.07,4.16-12.58,7.23-18.49.21-.49.71-.49,1.2-.49,1.48,0,4,1,3.83,2.73-.44,5.58-3.34,12.69-3.34,20,0,2.79.71,4.16,2.25,4.16,1.8,0,2.9-2.9,3.33-4.32a1.39,1.39,0,0,1,1.21,1.47c0,2.36-2.36,6.57-6.19,6.57s-4.76-3.94-4.76-8.37a80.46,80.46,0,0,1,1.43-10.83Z"/></svg>